<svg width="19" height="16" viewBox="0 0 19 16" fill="none" xmlns="http://www.w3.org/2000/svg">
<path fill-rule="evenodd" clip-rule="evenodd" d="M0.25 2C0.25 1.17 0.92 0.5 1.75 0.5C2.58 0.5 3.25 1.17 3.25 2C3.25 2.83 2.58 3.5 1.75 3.5C0.92 3.5 0.25 2.83 0.25 2ZM0.25 8C0.25 7.17 0.92 6.5 1.75 6.5C2.58 6.5 3.25 7.17 3.25 8C3.25 8.83 2.58 9.5 1.75 9.5C0.92 9.5 0.25 8.83 0.25 8ZM1.75 12.5C0.92 12.5 0.25 13.18 0.25 14C0.25 14.82 0.93 15.5 1.75 15.5C2.57 15.5 3.25 14.82 3.25 14C3.25 13.18 2.58 12.5 1.75 12.5ZM18.75 15H4.75V13H18.75V15ZM4.75 9H18.75V7H4.75V9ZM4.75 3V1H18.75V3H4.75Z" fill="#A99DC6"/>
</svg>
