<svg width="21" height="20" viewBox="0 0 21 20" fill="none" xmlns="http://www.w3.org/2000/svg">
<path fill-rule="evenodd" clip-rule="evenodd" d="M10.5 0C4.98 0 0.5 4.48 0.5 10C0.5 15.52 4.98 20 10.5 20C16.02 20 20.5 15.52 20.5 10C20.5 4.48 16.02 0 10.5 0ZM5.57 16.28C6 15.38 8.62 14.5 10.5 14.5C12.38 14.5 15.01 15.38 15.43 16.28C14.07 17.36 12.36 18 10.5 18C8.64 18 6.93 17.36 5.57 16.28ZM10.5 12.5C11.96 12.5 15.43 13.09 16.86 14.83C17.88 13.49 18.5 11.82 18.5 10C18.5 5.59 14.91 2 10.5 2C6.09 2 2.5 5.59 2.5 10C2.5 11.82 3.12 13.49 4.14 14.83C5.57 13.09 9.04 12.5 10.5 12.5ZM10.5 4C8.56 4 7 5.56 7 7.5C7 9.44 8.56 11 10.5 11C12.44 11 14 9.44 14 7.5C14 5.56 12.44 4 10.5 4ZM9 7.5C9 8.33 9.67 9 10.5 9C11.33 9 12 8.33 12 7.5C12 6.67 11.33 6 10.5 6C9.67 6 9 6.67 9 7.5Z" fill="#A99DC6"/>
</svg>
